PathFileType	4	(X/Y/Z)	C:\Users\°ÂÌØÂü\Desktop\20210112\bx_n_0_1802-Unnamed.trc
DataRate	CameraRate	NumFrames	NumMarkers	Units	OrigDataRate	OrigDataStartFrame	OrigNumFrames
50.00	50.00	       8	0	mm	50.00	372	       425
Frame#	Time	
		

372	7.420	-736.76642	250.18031	503.08963	-674.44562	76.21840	580.11652	-697.78595	282.19504	877.00854	-563.55243	94.82736	1342.55786	-594.97345	217.31195	806.95911	-687.81110	264.18875	745.94562	-701.63342	244.58995	639.71448	-832.22699	100.46839	1061.74377	-653.66467	13.83531	520.59601	-694.17975	240.23729	575.02863	-641.20404	198.49850	533.21490	-612.21637	-18.87488	816.25836	-713.69019	70.61684	216.05670	-651.35138	-69.75208	160.03612	-654.95728	138.02850	580.80933	-762.50629	223.49550	206.63341	-609.20807	-77.11720	158.29710	-882.56134	296.15305	144.66660	-626.66394	232.21658	1071.78455	-597.83813	23.16972	169.15895	-552.99976	-33.46924	166.42310	-517.52087	-72.68398	143.39951	-587.52679	211.99173	174.03429	-654.56079	293.03586	155.90163	-618.12109	300.68768	157.84840	-552.53510	248.70198	166.08003	-528.04968	304.26501	146.53712	-660.61176	91.07731	1845.45288	-625.68140	283.76263	1540.44812	-791.85303	174.85138	186.46820	-636.19598	-74.05692	1543.36584	-789.98523	43.82981	177.47356	-708.28979	149.08543	213.80406	-752.93591	-38.16552	490.51932	-758.74530	-16.33352	208.66119	-876.08313	-78.85428	141.48308	-703.28571	-73.90984	878.07129	-707.01416	-28.74836	569.33337	-672.82489	167.23056	155.72066	-671.80048	52.18138	159.50171	-635.35614	-15.97259	1063.98657	-708.14807	-58.84275	761.94928	-704.80731	-32.43149	616.52783	
373	7.440	-739.25452	249.65395	503.15402	-675.96179	75.36964	579.83893	-696.80029	281.07272	877.34039	-564.54919	94.89198	1344.28418	-594.10553	216.91338	806.22101	-688.07147	264.02188	746.36816	-703.51288	243.92618	640.43201	-829.60645	100.32590	1061.07056	-654.44604	13.89887	520.56018	-697.04639	239.39450	575.44574	-643.79224	197.97719	533.68958	-610.72858	-19.64503	815.79089	-714.10101	70.68848	216.31180	-651.29590	-69.71371	159.91504	-657.11230	137.05376	581.10028	-762.78503	223.39908	206.76778	-609.20807	-77.11720	158.29710	-882.50519	296.11130	144.75720	-624.69800	232.06833	1071.90063	-597.80560	23.14521	169.16391	-553.15521	-33.07181	166.33954	-517.55420	-72.91933	143.45842	-587.70648	211.82469	174.23308	-654.40930	293.07727	155.85660	-618.13605	300.78455	158.10112	-552.54901	248.72971	165.95595	-528.06512	304.10474	146.73299	-665.04413	90.79657	1846.45044	-629.35236	283.59839	1541.26697	-792.04871	174.82254	186.64449	-640.00037	-74.54103	1544.40198	-790.51343	43.63335	177.65753	-708.44269	149.12212	214.06674	-753.76245	-38.42903	490.52344	-758.88812	-16.57605	208.36148	-875.95648	-78.79716	141.44162	-701.27228	-74.63157	878.59521	-707.97699	-29.11181	569.82507	-672.82928	167.04826	156.12863	-671.80048	52.18138	159.50171	-632.69098	-16.31642	1064.50623	-707.56018	-59.16640	761.97046	-705.16345	-32.52196	617.24237	
374	7.460	-741.63031	249.28659	503.51920	-676.60229	74.93034	579.62457	-695.48468	280.91040	877.83490	-566.19312	94.71838	1345.74011	-593.33258	216.68535	805.46075	-688.86432	263.15372	747.01379	-705.30078	243.75130	641.16479	-827.44733	99.84376	1060.78027	-655.71796	13.66598	520.64886	-699.56567	238.74509	575.93707	-646.19983	197.67844	534.16406	-609.07977	-20.11520	815.88177	-714.17358	70.40923	215.98984	-651.21313	-69.73191	160.03654	-659.38367	136.81058	581.35541	-762.87909	223.34834	206.62216	-609.20807	-77.11720	158.29710	-882.39606	296.09891	144.73637	-621.85718	231.63007	1071.22595	-597.92340	23.17650	169.28961	-553.14771	-33.07141	166.27025	-517.51044	-72.49024	143.64449	-587.74652	211.78383	174.35066	-654.50958	293.01990	156.09851	-617.94098	300.53726	157.82153	-552.65887	248.70953	166.16940	-528.22528	304.04181	146.51495	-669.50476	90.79269	1847.22827	-633.35004	283.29675	1541.83691	-792.17981	175.05052	186.39876	-643.74121	-74.46586	1545.30322	-790.57404	43.54015	177.68492	-709.04944	149.08826	214.08131	-754.46985	-38.56144	490.46222	-758.97198	-16.40268	207.76343	-875.99792	-78.69180	141.55168	-699.05396	-75.26604	878.98535	-708.72992	-29.20871	569.43372	-673.05670	166.89592	156.27278	-671.93976	52.11341	159.55177	-630.61346	-16.80663	1064.87170	-706.48999	-59.43338	762.19513	-705.59564	-32.88465	617.46124	
375	7.480	-743.79480	248.96338	503.75241	-677.21796	74.68629	579.58099	-693.93707	280.68204	878.40839	-567.48566	94.42193	1347.24597	-592.87335	216.59818	804.99438	-689.35931	262.61530	747.13855	-707.37225	243.22093	641.67841	-825.30786	99.16298	1060.20349	-656.50214	13.46068	520.88977	-701.77118	238.65646	576.35303	-648.37598	197.33208	534.43927	-607.32141	-20.44471	815.00336	-714.30560	70.33634	215.85332	-651.28723	-69.72521	159.92189	-661.75452	136.81639	581.52429	-762.92438	223.52054	206.66158	-609.20392	-76.99529	158.13896	-882.44019	296.05743	144.65327	-619.44165	231.07297	1071.93286	-597.83258	23.15787	169.09190	-553.18903	-33.02417	166.20695	-517.56708	-72.69543	143.50102	-587.64221	211.97929	174.47127	-654.50366	292.94601	156.07129	-618.11725	300.71130	157.99367	-552.78162	248.63393	166.08627	-528.06799	304.30548	146.85791	-673.88788	90.64202	1848.00439	-636.73627	283.48694	1542.30017	-792.33905	175.14748	186.25578	-647.30841	-74.73977	1546.04700	-790.53595	43.45654	177.59749	-709.34570	149.09239	214.27936	-755.35107	-39.18162	490.83328	-758.94629	-16.64753	207.96809	-876.03687	-78.90970	141.42259	-696.89496	-75.20139	878.20569	-709.78937	-29.57383	569.74548	-673.09174	167.00027	156.28265	-671.92542	52.27402	159.54361	-628.46869	-17.71614	1064.96204	-705.68561	-59.64066	762.35394	-706.20129	-33.54542	617.91772	
376	7.500	-745.68439	248.72307	503.91751	-678.21063	74.05640	579.57190	-693.34344	280.08365	878.11542	-568.75348	94.10822	1348.57422	-592.31854	216.75749	804.51837	-689.72876	262.56076	747.55267	-709.00415	242.40588	641.97510	-823.23260	98.79964	1059.66650	-657.41602	13.05044	521.23859	-704.16205	238.48183	576.71198	-650.42682	197.66754	535.38617	-605.72925	-20.97476	814.86285	-714.50702	69.97643	215.73836	-651.40991	-69.83026	159.69334	-663.56079	136.14276	582.06616	-763.11267	223.34044	206.43118	-609.20392	-76.99529	158.13896	-882.48029	296.33026	144.85162	-617.77393	230.78209	1072.44751	-597.92340	23.17650	169.28961	-553.26208	-32.93420	166.11943	-517.61737	-72.88786	143.39975	-587.68408	211.87813	174.65790	-654.60010	292.96860	156.09146	-618.02496	300.75558	158.03897	-552.84070	248.64107	166.09023	-528.01447	303.94440	146.61531	-678.09302	90.60464	1848.62793	-640.32214	283.82083	1542.51953	-792.49158	175.20293	186.04654	-650.80255	-74.71492	1546.64050	-790.57404	43.54015	177.68492	-709.56641	149.25864	214.51224	-756.41608	-39.26452	490.84775	-759.22131	-16.51792	207.83885	-875.99792	-78.69180	141.55168	-695.09222	-76.11005	878.85522	-710.62158	-30.13835	569.62701	-672.96588	167.15773	156.51988	-671.98950	51.99088	159.77351	-626.11725	-17.99709	1065.26367	-704.74274	-60.30310	762.54541	-708.13281	-33.32089	617.66315	
377	7.520	-747.31360	248.60194	503.72211	-679.19836	73.20055	579.30560	-691.99280	279.92218	878.71155	-570.04047	93.84312	1349.69116	-591.96240	216.69666	803.47205	-690.09711	262.09964	747.55872	-710.54517	242.33652	642.68750	-821.04199	97.81438	1058.61841	-658.42786	12.73900	521.50116	-705.69196	238.36639	576.86823	-652.04504	197.23981	535.56366	-604.55524	-21.25794	814.66986	-714.46027	69.83638	216.07019	-651.50134	-69.93816	159.74583	-665.28741	136.30887	581.98285	-763.22015	223.28677	206.51079	-609.20392	-76.99529	158.13896	-882.38171	296.15680	144.80455	-616.37347	231.74144	1072.19861	-598.03418	23.29814	169.25668	-553.36560	-33.05941	166.22911	-517.67529	-72.76778	143.25168	-587.97955	211.93558	174.43716	-654.51440	292.81464	155.99927	-618.13605	300.78455	158.10112	-552.92041	248.47371	166.09033	-528.11072	304.29047	146.63930	-682.58228	90.12701	1848.91138	-643.64880	283.73499	1542.74585	-792.61176	175.23705	185.89012	-654.17975	-75.16928	1546.96326	-790.04944	42.93387	176.99757	-709.00891	148.66226	215.07767	-757.74750	-39.51030	490.91055	-759.20959	-16.82223	208.01817	-875.99792	-78.69180	141.55168	-692.88470	-75.94515	878.55042	-711.87390	-30.56452	570.10986	-673.21301	166.97282	156.44946	-671.93848	52.03222	159.59673	-624.19080	-18.27793	1065.21680	-703.79395	-60.68831	762.75092	-708.87238	-33.51457	617.50854	
378	7.540	-748.60919	248.45004	504.12347	-680.40082	73.02473	579.37292	-691.37531	279.75311	878.62195	-571.17847	93.57304	1350.55371	-591.70319	216.48514	803.00958	-690.31769	261.85089	747.66064	-712.03790	241.97462	642.85510	-819.75745	97.39041	1058.49182	-659.65039	12.28538	521.38214	-707.61255	238.26466	577.45642	-653.57593	196.99927	535.75916	-602.84192	-21.25105	813.92712	-715.26147	69.42492	216.24597	-651.50134	-69.93816	159.74583	-666.78296	136.32005	582.05389	-763.38757	223.07072	206.84158	-609.20807	-77.11720	158.29710	-882.46344	296.07651	144.61064	-614.88104	231.61996	1072.31580	-598.28607	23.34264	169.20309	-553.47021	-33.18495	166.38309	-517.68262	-72.94492	143.34761	-588.14807	211.92987	174.45995	-654.62054	292.97354	156.28592	-618.06958	300.65494	158.00728	-552.92041	248.47371	166.09033	-528.05273	303.95248	146.58699	-686.35284	90.47439	1849.28259	-647.09308	283.42380	1542.39648	-792.61365	175.17241	185.82236	-657.24377	-75.16297	1547.16711	-790.30096	43.10054	176.73149	-709.84052	149.06163	214.73621	-758.00482	-39.83706	490.70456	-759.46008	-17.15771	207.60660	-876.00275	-78.74174	141.50209	-691.11322	-76.76266	878.69641	-712.26715	-31.07447	570.29340	-673.34650	167.08725	156.33061	-672.37177	51.87254	159.97881	-622.11859	-18.66621	1065.20642	-702.71063	-61.23989	762.88068	-709.63556	-34.09339	617.83484	
379	7.560	-749.92133	248.51382	504.25095	-681.39423	72.58954	579.14978	-690.58594	279.42123	879.00482	-572.64478	93.32919	1351.39575	-590.81348	216.60007	802.53485	-690.34424	261.64307	747.91821	-713.07269	241.78964	643.10614	-817.97473	96.36543	1057.52698	-660.38660	11.93509	521.54077	-708.87640	238.03650	577.43732	-654.97888	197.25766	536.15039	-601.52948	-21.65149	813.73022	-715.33142	69.31659	216.21126	-651.52271	-70.03722	159.87933	-668.00067	136.10274	582.16693	-763.77478	223.33278	206.55655	-609.03467	-77.09145	158.12900	-882.43616	296.14734	144.72641	-613.28473	231.47166	1072.44739	-598.45007	23.39316	169.44104	-553.63019	-32.85178	166.21732	-517.75415	-73.07771	143.28877	-588.14807	211.92987	174.45995	-654.64874	293.01511	156.22516	-618.12012	300.57959	158.08124	-553.06012	248.54482	166.06841	-528.30377	304.03336	146.61523	-690.26050	90.11301	1849.42871	-650.13782	283.53064	1542.58350	-792.64514	175.23878	185.88237	-660.08429	-75.53222	1547.43018	-790.46820	42.43748	176.72003	-709.00891	148.66226	215.07767	-758.82135	-41.12492	490.66705	-759.59564	-17.36917	207.48471	-875.87817	-78.62728	141.29668	-688.84180	-77.37719	878.65466	-713.29932	-32.16211	570.74255	-673.19244	167.35002	156.54068	-672.31384	51.82317	160.08394	-620.51593	-18.85665	1065.07214	-701.85858	-62.00826	762.96503	-710.34729	-35.22252	618.17877	
